<svg width="319" height="295" viewBox="0 0 319 295" fill="none" xmlns="http://www.w3.org/2000/svg">
<path d="M82.3489 110.51C98.7647 101.339 115.025 92.2285 131.326 83.194C133.005 82.2635 133.646 81.1589 133.546 79.2653C133.397 76.4358 133.507 73.5926 133.507 70.8117C132.343 70.4151 131.708 71.0946 131.028 71.4728C100.817 88.2717 70.6202 105.096 40.3982 121.876C38.9289 122.692 38.4879 123.723 38.4968 125.321C38.5471 134.342 38.4907 143.364 38.53 152.386C38.537 153.972 38.1725 155.268 37.094 156.491C35.8071 157.95 34.4588 159.468 33.6357 161.198C32.2615 164.087 30.0701 165.796 27.3145 167.236C19.4568 171.343 11.7113 175.664 3.90086 179.862C3.01097 180.34 2.17049 181.087 0.868231 180.919C0.162669 178.828 0.863535 176.615 0.487905 174.525C-0.496094 169.049 1.69445 165.895 6.80691 163.708C12.2418 161.382 17.2601 158.095 22.5223 155.347C24.2865 154.425 24.9399 153.257 24.9222 151.256C24.8355 141.483 24.937 131.709 24.8667 121.936C24.8523 119.935 25.3436 118.657 27.2322 117.614C39.933 110.605 52.8362 103.978 65.624 97.1344C87.2255 85.5735 108.949 74.2456 130.747 63.0617C132.83 61.993 133.601 60.6948 133.539 58.3283C133.368 51.7921 133.523 45.248 133.453 38.708C133.436 37.1572 133.96 36.2315 135.308 35.4681C138.838 33.4684 142.289 31.3286 145.781 29.2594C146.345 28.925 146.862 28.4036 148.008 28.6992C148.008 36.6998 148.008 44.8123 148.008 53.7015C182.593 36.1874 216.389 18.6221 251.54 2.70261C251.112 4.11177 250.264 4.30586 249.625 4.6643C221.58 20.4046 193.527 36.1304 165.48 51.8674C160.434 54.699 155.435 57.6171 150.362 60.3989C148.718 61.3001 148.06 62.411 148.094 64.3303C148.22 71.4703 148.123 78.6141 148.223 85.7549C148.247 87.5006 147.616 88.4331 146.095 89.2677C126.003 100.294 105.945 111.384 85.8825 122.464C75.2924 128.313 64.7114 134.179 54.119 140.023C53.2113 140.524 52.2482 140.925 51.4302 141.315C50.4509 140.82 50.6298 140.071 50.6262 139.429C50.6092 136.422 50.6703 133.414 50.6147 130.408C50.585 128.801 51.1928 127.826 52.6478 127.027C62.5282 121.6 72.3584 116.082 82.3489 110.51Z" fill="white"/>
<path d="M218.477 63.466C249.389 46.1097 280.157 28.834 310.874 11.587C311.776 12.3142 311.524 13.1212 311.529 13.8224C311.556 18.0316 311.479 22.2425 311.573 26.4498C311.609 28.0858 311.055 29.025 309.599 29.8244C294.782 37.961 279.973 46.1122 265.221 54.3671C244.437 65.9979 223.719 77.7466 202.927 89.3622C200.83 90.5339 200.032 91.8548 200.05 94.3021C200.169 111.214 200.094 128.127 200.158 145.04C200.164 146.838 199.682 147.94 197.998 148.752C194.888 150.251 191.897 151.997 188.834 153.597C188.063 154 187.327 154.583 186.372 154.555C185.573 153.67 185.859 152.651 185.858 151.721C185.835 129.471 185.865 107.222 185.777 84.9725C185.768 82.8077 186.429 81.5534 188.304 80.5086C198.345 74.9122 208.329 69.2113 218.477 63.466Z" fill="white"/>
<path d="M113.988 221.022C111.697 230.29 107.456 238.226 99.8867 243.936C87.8254 253.034 75.0967 252.765 62.2934 245.683C47.7349 237.63 39.5633 224.766 36.1123 208.855C33.2507 195.661 34.2546 182.67 40.6238 170.537C46.2494 159.82 54.8483 152.707 67.1399 151.062C75.6049 149.93 83.4395 152.315 90.4336 157.021C103.657 165.918 111.181 178.628 114.367 194.055C116.213 202.994 116.151 211.936 113.988 221.022ZM91.0807 235.002C95.4625 232.584 98.4314 228.845 100.62 224.478C104.332 217.071 105.097 209.199 104.217 201.04C103.071 190.421 99.3507 180.962 92.0082 173.092C86.7955 167.505 80.3987 163.91 72.7448 163.405C62.6895 162.742 55.5337 167.656 50.7318 176.228C45.7786 185.071 44.9726 194.575 46.7501 204.359C48.851 215.923 53.8155 225.958 63.7422 232.758C72.181 238.539 81.2186 240.662 91.0807 235.002Z" fill="white"/>
<path d="M113.088 265.061C112.2 266.361 112.597 267.674 112.581 268.92C112.526 273.279 112.521 277.64 112.568 282C112.582 283.355 112.145 284.203 110.882 284.847C105.929 287.372 101.024 289.992 96.1102 292.594C95.1323 293.112 94.2191 293.404 93.1543 292.752C87.5149 289.299 81.8554 285.879 76.2045 282.445C75.8233 282.213 75.4549 281.961 75.3696 281.905C75.3065 280.888 75.739 280.676 76.1271 280.465C79.4311 278.677 82.7547 276.924 86.0427 275.106C87.1523 274.492 88.1345 274.445 89.1751 275.211C89.7776 275.654 90.5467 275.9 91.0797 276.405C93.6485 278.838 96.0986 277.785 98.6203 276.32C99.6931 275.697 99.6446 274.77 99.6449 273.791C99.6467 268.979 99.6954 264.168 99.624 259.358C99.6022 257.89 100.109 257.056 101.41 256.346C116.057 248.355 130.968 240.873 145.812 233.262C180.183 215.639 214.582 198.067 249.224 180.981C259.19 176.065 269.024 170.815 279.645 167.363C282.169 166.542 284.663 165.455 287.492 165.38C287.341 166.692 286.328 166.91 285.633 167.352C272.124 175.946 258.21 183.858 244.345 191.849C202.22 216.127 159.352 239.068 116.929 262.81C115.684 263.507 114.452 264.229 113.088 265.061Z" fill="white"/>
<path d="M300.674 123.623C267.835 140.848 234.759 157.249 201.613 174.914C201.613 171.214 201.948 168.121 201.536 165.131C200.892 160.46 202.846 158.236 206.956 156.087C235.182 141.326 263.233 126.23 291.348 111.256C299.703 106.806 308.083 102.401 316.454 97.9808C317.037 97.6729 317.597 97.23 318.478 97.5014C319.02 99.0355 318.715 100.689 318.739 102.302C318.788 105.608 318.673 108.918 318.786 112.221C318.843 113.905 318.176 114.788 316.705 115.511C311.382 118.13 306.117 120.868 300.674 123.623Z" fill="white"/>
<path d="M289.962 68.8852C289.203 70.7845 287.456 71.1786 286.056 71.9471C270.055 80.7352 254.024 89.4694 238.007 98.2289C234.25 100.284 230.539 102.425 226.757 104.431C225.379 105.162 224.878 106.099 224.905 107.655C225.037 115.242 225.026 122.831 225.15 130.418C225.194 133.098 224.612 135.034 221.804 136.27C218.116 137.894 214.673 140.079 211.276 141.94C210.476 141.586 210.581 141.101 210.579 140.663C210.513 126.993 210.49 113.322 210.344 99.6521C210.319 97.3326 211.098 96.0249 213.166 94.8753C230.568 85.201 247.899 75.3984 265.255 65.6398C272.851 61.3682 280.455 57.1092 288.056 52.8438C288.512 52.5877 288.959 52.3074 290.001 52.4643C290.001 57.8229 290.001 63.2629 289.962 68.8852Z" fill="white"/>
<path d="M27.9104 238.195C44.1332 248.051 60.3477 257.599 76.9709 267.053C75.0338 268.905 72.8021 269.429 71.1477 270.767C66.2145 274.759 61.9888 274.121 56.5573 270.72C39.2526 259.882 21.5156 249.731 3.87604 239.433C1.43901 238.011 0.272246 236.434 0.469744 233.55C0.700073 230.185 0.512248 226.793 0.503092 223.412C0.500166 222.33 0.579997 221.338 1.73448 220.742C8.73997 217.123 15.5558 213.142 22.6935 209.777C23.0829 209.593 23.5292 209.53 23.8838 209.429C24.6966 209.957 24.4895 210.693 24.5083 211.334C24.5437 212.534 24.5182 213.737 24.5161 214.939C24.5022 222.562 24.5019 222.561 17.7305 226.064C17.3304 226.271 16.9256 226.471 16.5385 226.701C14.5028 227.907 14.4629 230.277 16.5019 231.493C20.243 233.724 24.0133 235.905 27.9104 238.195Z" fill="white"/>
<path d="M175.287 136.111C175.288 139.55 175.288 142.764 175.288 145.918C174.437 146.129 174.269 145.642 174.056 145.275C171.373 140.656 167.831 136.797 163.563 133.622C161.708 132.241 160.965 130.581 160.972 128.242C161.031 107.791 161.007 87.3391 160.954 66.8878C160.951 65.5284 161.321 64.6678 162.492 63.9442C166.568 61.4259 170.588 58.8177 175.286 55.8251C175.286 82.953 175.286 109.419 175.287 136.111Z" fill="white"/>
<path d="M210.147 242.802C204.408 239.561 198.527 236.894 193.023 233.107C194.81 231.432 196.871 230.849 198.63 229.779C200.938 228.375 203.396 227.213 205.694 225.793C207.153 224.891 208.356 224.92 209.847 225.756C216.529 229.504 223.36 232.998 229.941 236.913C232.416 238.384 234.283 238.061 236.57 236.872C250.502 229.63 264.47 222.46 278.434 215.281C281.841 213.529 285.266 211.811 288.704 210.12C289.88 209.541 290.5 208.828 290.549 207.375C290.68 203.503 293.654 200.588 297.26 200.539C300.805 200.491 304.023 203.237 304.318 206.562C304.676 210.585 302.184 213.783 298.234 214.444C296.982 214.654 295.758 214.532 294.777 213.818C293.393 212.81 292.271 213.069 290.88 213.848C269.32 225.927 247.727 237.948 226.17 250.033C225.011 250.683 224.207 250.627 223.099 249.991C218.865 247.561 214.568 245.241 210.147 242.802Z" fill="white"/>
<path d="M124.476 158.367C132.135 166.959 136.997 176.842 138.476 188.024C139.924 198.972 138.401 209.492 130.603 218.205C128.569 220.478 126.201 222.43 124.687 223.012C130.824 191.603 121.985 165.995 95.0586 147.031C106.895 145.754 116.45 149.819 124.476 158.367Z" fill="white"/>
<path d="M145.136 156.669C149.641 163.023 152.131 170.069 154.123 177.342C154.472 178.616 154.28 179.419 153.154 180.188C150.809 181.789 148.562 183.537 145.974 184.687C144.989 184.254 144.958 183.367 144.737 182.601C141.879 172.705 137.81 163.422 131.15 155.418C126.048 149.285 119.794 144.769 112.427 141.754C111.78 141.489 110.936 141.485 110.604 140.489C116.267 138.607 121.746 138.904 127.211 141.169C134.86 144.339 140.364 149.946 145.136 156.669Z" fill="white"/>
<path d="M174.321 265.045C178.308 267.264 182.147 269.41 186.133 271.637C185.152 273.025 183.878 273.368 182.811 273.978C179.553 275.838 176.258 277.633 173.009 279.509C172.09 280.039 171.305 280.248 170.298 279.686C161.066 274.523 151.811 269.4 142.573 264.247C141.803 263.817 141.111 263.247 140.492 262.817C140.481 261.912 141.069 261.777 141.503 261.533C145.427 259.326 149.381 257.172 153.275 254.913C154.458 254.227 155.397 254.212 156.591 254.908C162.425 258.307 168.308 261.624 174.321 265.045Z" fill="white"/>
<path d="M156.69 164.462C151.936 153.465 145.593 143.991 135.072 137.912C132.91 136.662 130.62 135.752 128.277 134.932C127.545 134.676 126.639 134.667 126.133 133.508C132.829 132.328 139.307 132.136 145.479 135.173C156.394 140.543 162.818 149.695 166.613 160.907C167.594 163.806 168.084 166.87 168.803 169.858C169.244 171.689 169.002 173.18 167.227 174.327C165.171 175.656 163.558 177.622 160.955 178.877C159.691 173.966 158.449 169.223 156.69 164.462Z" fill="white"/>
<path d="M171.494 244.791C174.33 243.213 177.025 241.723 179.701 240.198C180.685 239.638 181.548 239.498 182.636 240.109C192.13 245.445 201.658 250.722 211.169 256.029C211.602 256.271 212.188 256.4 212.294 257.324C209.546 258.877 206.493 260.205 203.907 262.153C199.833 265.222 196.415 265.077 192.036 262.293C184.507 257.507 176.474 253.514 168.663 249.169C167.956 248.776 167.133 248.511 166.576 247.572C167.927 246.273 169.815 245.859 171.494 244.791Z" fill="white"/>
<path d="M124.531 272.614C125.541 270.142 128.247 268.904 130.111 269.943C139.56 275.211 148.997 280.502 158.43 285.798C158.995 286.115 159.727 286.283 159.89 287.057C159.827 287.497 159.527 287.704 159.189 287.893C155.384 290.014 151.561 292.103 147.789 294.282C146.463 295.048 145.375 295.009 144.039 294.228C138.461 290.967 132.861 287.739 127.183 284.658C125.116 283.536 124.3 282.125 124.489 279.799C124.677 277.485 124.526 275.143 124.531 272.614Z" fill="white"/>
<path d="M67.7031 78.2675C84.9226 68.7121 102.556 60.3206 119.897 51.3643C121.033 50.7775 122.345 49.4522 123.469 51.5607C124.503 53.5001 123.522 54.4091 121.921 55.2485C105.17 64.0322 88.5826 73.1282 71.6414 81.5503C66.9379 83.8886 62.3 86.3646 57.6956 88.8933C55.9365 89.8594 54.7475 89.6318 53.8063 87.8867C52.8498 86.1132 53.89 85.2767 55.3035 84.5631C59.3919 82.4988 63.4705 80.4153 67.7031 78.2675Z" fill="white"/>
<path d="M18.216 184.889C20.1684 183.93 21.8072 182.706 23.8936 182.066C24.7381 183.825 24.2049 185.651 24.3437 187.38C24.5349 189.762 24.3512 192.172 24.3558 194.571C24.3574 195.412 24.0118 196.024 23.2924 196.41C16.0898 200.27 8.88366 204.123 1.67147 207.966C1.49642 208.059 1.23961 207.999 1.05366 208.008C0.354934 207.61 0.484993 206.957 0.483768 206.383C0.476698 203.082 0.551882 199.779 0.477662 196.48C0.440823 194.842 1.07502 193.84 2.51745 193.1C7.72239 190.43 12.8894 187.686 18.216 184.889Z" fill="white"/>
<path d="M270.758 156.868C259.354 162.989 248.095 169.027 236.834 175.062C234.732 176.188 233.88 175.709 232.036 172.369C232.349 171.397 233.3 171.151 234.057 170.73C247.591 163.2 261.574 156.532 275.279 149.33C276.586 148.642 277.781 148.195 278.646 149.966C279.472 151.659 278.763 152.657 277.284 153.421C275.148 154.526 273.028 155.662 270.758 156.868Z" fill="white"/>
<path d="M169.177 13.2329C164.747 9.82714 164.84 3.90058 169.207 1.57302C171.874 0.151884 174.979 0.656864 177.003 2.84094C179.007 5.00231 179.365 8.18853 177.893 10.758C176.399 13.3673 173.479 14.6032 170.577 13.8315C170.147 13.717 169.744 13.4974 169.177 13.2329Z" fill="white"/>
<path d="M220.904 49.8827C216.99 51.3479 213.716 50.2351 212.141 47.0477C210.674 44.0789 211.74 40.3165 214.546 38.5571C217.506 36.7007 221.564 37.5879 223.455 40.5048C225.511 43.6752 224.547 47.4145 220.904 49.8827Z" fill="white"/>
<path d="M234.898 128.495C234.27 126.565 235.617 125.992 236.799 125.331C244.938 120.778 253.39 116.856 261.829 112.908C265.074 111.39 268.321 109.877 271.954 108.18C271.63 109.539 270.827 109.795 270.181 110.145C259.087 116.162 247.986 122.167 236.879 128.163C236.307 128.472 235.743 128.951 234.898 128.495Z" fill="white"/>
<path d="M261.855 211.12C252.744 216.137 243.78 221.076 234.79 226.029C233.831 224.327 234.343 223.42 235.462 222.812C246.208 216.968 257.042 211.296 268.258 206.389C268.573 206.251 268.938 206.229 269.28 206.152C269.382 206.343 269.484 206.534 269.586 206.724C267.058 208.164 264.529 209.604 261.855 211.12Z" fill="white"/>
<path d="M260.795 198.343C252.104 203.045 243.553 207.66 234.942 212.307C233.77 210.282 235.099 209.729 236.175 209.121C243.362 205.056 250.659 201.2 258.101 197.622C261.956 195.769 265.815 193.925 269.686 192.108C270.403 191.771 271.067 191.199 272.676 191.459C268.436 193.913 264.686 196.085 260.795 198.343Z" fill="white"/>
<path d="M268.4 95.8972C269.085 95.6665 269.551 95.1443 270.744 95.6884C258.958 102.61 247.132 108.717 235.312 115.061C234.071 113.218 235.288 112.463 236.467 111.832C241.293 109.25 246.103 106.631 251.004 104.196C256.71 101.359 262.504 98.6999 268.4 95.8972Z" fill="white"/>
<path d="M258.554 248.43C261.029 250.454 261.044 250.703 258.499 252.208C255.466 254.002 252.386 255.716 249.319 257.451C248.083 258.15 246.971 258.375 246.094 256.828C245.17 255.2 246.349 254.646 247.404 254.094C251.054 252.184 254.557 249.989 258.554 248.43Z" fill="white"/>
<path d="M190.021 18.3276C192.063 17.4608 193.752 16.1483 195.949 15.8041C195.825 16.8448 195.068 17.0132 194.537 17.3388C188.454 21.0674 182.283 24.6422 175.96 27.9501C175.561 28.1588 175.156 28.359 174.745 28.5424C174.016 28.8682 173.252 29.0747 172.8 28.1771C172.316 27.2183 173.089 26.7979 173.752 26.4612C177.97 24.3191 182.201 22.2036 186.43 20.0853C187.572 19.5137 188.723 18.9627 190.021 18.3276Z" fill="white"/>
<path d="M91.6644 46.2881C94.8742 45.0434 97.3144 45.963 97.6641 48.4418C97.9158 50.2266 97.4155 51.7833 95.6606 52.5256C93.9212 53.2613 92.2395 52.993 91.069 51.3728C89.8093 49.6291 89.8353 47.909 91.6644 46.2881Z" fill="white"/>
<path d="M220.985 183.958C218.279 183.812 216.782 182.28 217.234 180.268C217.581 178.722 218.598 177.727 220.179 177.665C221.558 177.611 222.646 178.381 223.024 179.743C223.535 181.583 223.2 183.16 220.985 183.958Z" fill="white"/>
<path d="M114.351 118.613C116.206 118.668 117.387 119.415 117.728 121.154C117.987 122.476 117.437 123.528 116.383 124.265C114.985 125.242 112.913 124.696 112.095 123.21C111.111 121.425 111.936 119.622 114.351 118.613Z" fill="white"/>
<path d="M209.771 188.123C208.068 190.393 206.461 190.8 205.043 189.404C203.916 188.293 203.53 186.965 204.359 185.518C205.104 184.219 206.248 183.512 207.753 184.05C209.562 184.698 210.314 186.034 209.771 188.123Z" fill="white"/>
<path d="M183.27 200.428C182.596 202.115 181.584 203.122 179.826 202.88C178.414 202.686 177.588 201.753 177.321 200.383C176.977 198.616 178.283 196.931 180.085 196.741C182.109 196.528 183.171 197.681 183.27 200.428Z" fill="white"/>
<path d="M194.532 190.624C196.258 191.757 196.908 193.145 195.922 194.894C195.174 196.223 194.04 197.102 192.408 196.437C190.84 195.799 190.164 194.53 190.366 192.852C190.593 190.963 192.045 190.147 194.532 190.624Z" fill="white"/>
<path d="M129.063 113.605C129.713 114.558 130.231 115.388 129.945 116.439C129.577 117.793 128.737 118.713 127.319 118.851C125.919 118.988 124.814 118.345 124.279 117.028C123.672 115.536 124.115 114.219 125.336 113.22C126.584 112.2 127.813 112.384 129.063 113.605Z" fill="white"/>
<path d="M139.636 111.893C137.433 112.306 136.272 111.264 135.9 109.431C135.55 107.713 136.558 106.506 138.1 105.979C139.668 105.443 140.936 106.178 141.562 107.654C142.375 109.57 141.62 110.971 139.636 111.893Z" fill="white"/>
<path d="M101.911 131.449C99.9943 129.781 99.5644 128.072 100.631 126.738C101.527 125.617 102.743 125.317 104.049 125.77C105.405 126.241 106.003 127.394 105.971 128.754C105.939 130.144 105.156 131.165 103.82 131.58C103.292 131.744 102.656 131.562 101.911 131.449Z" fill="white"/>
<path d="M111.263 40.0535C110.751 38.7331 110.798 37.6639 111.93 36.9103C112.65 36.4314 113.45 36.1962 114.26 36.6965C115.496 37.46 116.103 38.4853 115.329 39.9066C114.525 41.382 113.127 41.4701 111.263 40.0535Z" fill="white"/>
<path d="M69.5968 203.707C63.9752 195.741 67.8145 187.04 73.7347 184.008C78.2244 181.708 82.4867 182.238 86.4972 184.95C97.8143 192.603 96.493 208.988 85.74 215.975C85.5005 216.131 85.1996 216.192 84.3107 216.535C87.8212 210.925 88.0604 205.545 85.3185 199.704C83.7841 203.344 82.4241 206.858 78.1646 207.5C74.605 208.036 71.9112 206.468 69.5968 203.707ZM80.3451 197.591C82.535 197.579 80.9998 196.079 81.5688 195.177C79.7111 195.372 79.3871 196.102 80.3451 197.591Z" fill="white"/>
</svg>
